# xmcd
#
# Track frame offsets:
#	150
#	13022
#	29467
#	46545
#	58892
#	76427
#	88810
#	102145
#	117250
#	130210
#
# Disc length: 1971 seconds
#
# Revision: 4
# Processed by: cddbd v1.5.1PL0 Copyright (c) Steve Scherf et al.
# Submitted via: audiograbber 1.83.01
#
DISCID=7b07b10a
DTITLE=Pam Tillis - Sweetheart's Dance
DYEAR=1994
DGENRE=Country
TTITLE0=Mi Vida Loca (My Crazy Life)
TTITLE1=Sweetheart's Dance
TTITLE2=Calico Plains
TTITLE3=When You Walk In The Room
TTITLE4=Spilled Perfume
TTITLE5=I Was Blown Away
TTITLE6=They Don't Break 'Em Like They Used To
TTITLE7=In Between Dances
TTITLE8=Better Off Blue
TTITLE9='til All The Lonely's Gone
EXTD=
EXTT0=
EXTT1=
EXTT2=
EXTT3=
EXTT4=
EXTT5=
EXTT6=
EXTT7=
EXTT8=
EXTT9=
PLAYORDER=
